<?xml version="1.0" encoding="iso-8859-1"?>
<!-- Uploaded to: SVG Repo, www.svgrepo.com, Generator: SVG Repo Mixer Tools -->
<svg height="800px" width="800px" version="1.1" id="Layer_1" xmlns="http://www.w3.org/2000/svg" xmlns:xlink="http://www.w3.org/1999/xlink" 
	 viewBox="0 0 512.203 512.203" xml:space="preserve">
<g>
	<path style="fill:#26B99A;" d="M10.222,276.087l103.23,74.549c11.67,8.439,27.992,0.097,27.992-14.31v-53.742h97.103v79.448
		c0,58.403,47.519,105.931,105.931,105.931h35.31c10.478,25.865,32.159,44.138,61.793,44.138c39,0,70.621-31.62,70.621-70.621
		c0-39.009-31.62-70.621-70.621-70.621c-29.634,0-51.315,18.264-61.793,44.138h-35.31c-29.211,0-52.966-23.764-52.966-52.966
		v-79.448h88.276c10.478,25.865,32.159,44.138,61.793,44.138c39,0,70.621-31.62,70.621-70.621c0-39.009-31.62-70.621-70.621-70.621
		c-29.634,0-51.315,18.264-61.793,44.138h-88.276V150.17c0-29.21,23.755-52.966,52.966-52.966h35.31
		c10.478,25.865,32.159,44.138,61.793,44.138c39,0,70.621-31.62,70.621-70.621c0-39.009-31.62-70.621-70.621-70.621
		c-29.634,0-51.315,18.264-61.793,44.138h-35.31c-58.412,0-105.931,47.519-105.931,105.931v70.621h-97.103v-44.924
		c0-14.398-16.322-22.74-27.992-14.31l-103.23,74.549C-3.407,245.95-3.407,266.244,10.222,276.087"/>
</g>
</svg>